<svg width="20" height="20" viewBox="0 0 20 20" fill="none" xmlns="http://www.w3.org/2000/svg">
<path fill-rule="evenodd" clip-rule="evenodd" d="M8.92672 8.92685V17.1219H4.82929C3.85943 17.1219 3.0732 16.3356 3.0732 15.3658V4.82918C3.0732 3.85931 3.85943 3.07308 4.82929 3.07308H8.92672V3.07319V7.75612V8.92685ZM10.0976 8.92685V17.1219V17.122H15.3657C16.3356 17.122 17.1218 16.3357 17.1218 15.3659V8.92685H10.0976ZM17.1218 7.75612V4.82929C17.1218 3.85943 16.3356 3.07319 15.3657 3.07319H10.0976V7.75612H17.1218ZM18.2926 8.92685V15.3659C18.2926 16.9823 16.9822 18.2927 15.3657 18.2927H10.0975H8.92672V18.2926H4.82929C3.21285 18.2926 1.90247 16.9822 1.90247 15.3658V4.82918C1.90247 3.21273 3.21285 1.90234 4.82929 1.90234H8.92686H10.0976V1.90246H15.3657C16.7801 1.90246 17.9602 2.90573 18.2331 4.23943C18.2721 4.42996 18.2926 4.62724 18.2926 4.82929V7.75612V8.92685Z" fill="white"/>
</svg>
