<svg width="19" height="20" viewBox="0 0 19 20" fill="none" xmlns="http://www.w3.org/2000/svg">
<path fill-rule="evenodd" clip-rule="evenodd" d="M12.8783 5.26886C12.8783 7.2086 11.3058 8.78106 9.3661 8.78106C7.42637 8.78106 5.8539 7.2086 5.8539 5.26886C5.8539 3.32913 7.42637 1.75667 9.3661 1.75667C11.3058 1.75667 12.8783 3.32913 12.8783 5.26886ZM14.049 5.26886C14.049 7.85517 11.9524 9.95179 9.3661 9.95179C6.77979 9.95179 4.68317 7.85517 4.68317 5.26886C4.68317 2.68256 6.77979 0.585938 9.3661 0.585938C11.9524 0.585938 14.049 2.68256 14.049 5.26886ZM7.61 12.2933H11.1222C14.481 12.2933 17.2392 14.8651 17.535 18.1469H1.19723C1.49297 14.8651 4.25115 12.2933 7.61 12.2933ZM11.1222 11.1225C15.128 11.1225 18.4109 14.2177 18.7098 18.1469C18.7245 18.3401 18.732 18.5353 18.732 18.7323V19.3176H17.5612H1.17098H0.000244141V18.7323C0.000244141 18.5353 0.00772693 18.3401 0.0224237 18.1469C0.321328 14.2177 3.60421 11.1225 7.61 11.1225H11.1222Z" fill="white"/>
</svg>
