<svg width="19" height="19" viewBox="0 0 19 19" fill="none" xmlns="http://www.w3.org/2000/svg">
<path fill-rule="evenodd" clip-rule="evenodd" d="M9.36571 17.5607C13.8918 17.5607 17.5608 13.8916 17.5608 9.36555C17.5608 4.83951 13.8918 1.17043 9.36571 1.17043C4.83967 1.17043 1.17059 4.83951 1.17059 9.36555C1.17059 13.8916 4.83967 17.5607 9.36571 17.5607ZM9.36571 18.7314C14.5383 18.7314 18.7316 14.5382 18.7316 9.36555C18.7316 4.19293 14.5383 -0.000305176 9.36571 -0.000305176C4.1931 -0.000305176 -0.000139236 4.19293 -0.000139236 9.36555C-0.000139236 14.5382 4.1931 18.7314 9.36571 18.7314ZM8.6089 5.43944C8.8375 5.66804 8.8375 6.03867 8.6089 6.26727L5.51062 9.36555L8.6089 12.4638C8.8375 12.6924 8.8375 13.0631 8.6089 13.2917C8.3803 13.5203 8.00967 13.5203 7.78107 13.2917L4.26887 9.77946C4.04027 9.55087 4.04027 9.18023 4.26887 8.95163L7.78107 5.43944C8.00967 5.21084 8.3803 5.21084 8.6089 5.43944ZM13.2918 6.26727C13.5204 6.03867 13.5204 5.66804 13.2918 5.43944C13.0632 5.21084 12.6926 5.21084 12.464 5.43944L8.9518 8.95163C8.7232 9.18023 8.7232 9.55087 8.9518 9.77946L12.464 13.2917C12.6926 13.5203 13.0632 13.5203 13.2918 13.2917C13.5204 13.0631 13.5204 12.6924 13.2918 12.4638L10.1935 9.36555L13.2918 6.26727Z" fill="#778192"/>
</svg>
